<svg width="56" height="56" viewBox="0 0 56 56" fill="none" xmlns="http://www.w3.org/2000/svg">
<path d="M0 12C0 5.37258 5.37258 0 12 0H44C50.6274 0 56 5.37258 56 12V44C56 50.6274 50.6274 56 44 56H12C5.37258 56 0 50.6274 0 44V12Z" fill="#C0FD49"/>
<path fill-rule="evenodd" clip-rule="evenodd" d="M22.8149 31.6568C23.8994 32.07 25.0442 32.3597 26.2324 32.5087V37.7812C26.2324 38.7305 25.4674 39.5 24.5237 39.5C23.58 39.5 22.8149 38.7305 22.8149 37.7812V31.6568Z" fill="#1D1F19"/>
<path d="M29.8641 32.4784C31.0523 32.3293 32.1971 32.0397 33.2816 31.6265V37.7508C33.2816 38.7001 32.5165 39.4696 31.5728 39.4696C30.6291 39.4696 29.8641 38.7001 29.8641 37.7508V32.4784Z" fill="#1D1F19"/>
<path d="M12 17.5938C12 16.9897 12.4868 16.5 13.0874 16.5C13.6879 16.5 14.1748 16.9897 14.1748 17.5938C14.1748 25.2743 20.3645 31.5006 28 31.5006C35.6355 31.5006 41.8252 25.2743 41.8252 17.5938C41.8252 16.9897 42.3121 16.5 42.9126 16.5C43.5132 16.5 44 16.9897 44 17.5938C44 26.4825 36.8366 33.6882 28 33.6882C19.1634 33.6882 12 26.4825 12 17.5938Z" fill="#1D1F19"/>
<path fill-rule="evenodd" clip-rule="evenodd" d="M29.8641 18.6876V28.7045C31.0796 28.5104 32.2298 28.1193 33.2816 27.5648V18.6876C33.2816 17.7383 32.5165 16.9688 31.5728 16.9688C30.6291 16.9688 29.8641 17.7383 29.8641 18.6876Z" fill="#1D1F19"/>
<path fill-rule="evenodd" clip-rule="evenodd" d="M26.1359 18.6876C26.1359 17.7383 25.3709 16.9688 24.4272 16.9688C23.4835 16.9688 22.7184 17.7383 22.7184 18.6876V27.4606C23.0648 27.652 23.4223 27.8255 23.7897 27.9798L23.7982 27.9834C24.5405 28.2945 25.3228 28.5273 26.1359 28.6719V18.6876Z" fill="#1D1F19"/>
</svg>
